<?xml version="1.0" encoding="UTF-8"?>
<svg width="169px" height="20px" viewBox="0 0 169 20" version="1.1" xmlns="http://www.w3.org/2000/svg" xmlns:xlink="http://www.w3.org/1999/xlink">
    <!-- Generator: Sketch 53.2 (72643) - https://sketchapp.com -->
    <title>wagnerwagner</title>
    <desc>Created with Sketch.</desc>
    <g id="wagnerwagner" stroke="none" stroke-width="1" fill="none" fill-rule="evenodd">
        <path d="M15.1598529,6.11717647 L13.5898529,6.11717647 C13.4822059,6.11717647 13.3904412,6.18217647 13.3586765,6.28923529 L10.7822059,15.8936471 L8.46367647,6.22511765 C8.44573529,6.11717647 8.3825,6.07423529 8.25338235,6.07423529 L8.2175,6.07423529 L7.16367647,6.07423529 L7.12838235,6.07423529 C6.99926471,6.07423529 6.93602941,6.11717647 6.91838235,6.22511765 L4.59955882,15.8936471 L2.02279412,6.28923529 C1.99161765,6.18188235 1.90014706,6.11717647 1.79191176,6.11717647 L0.221911765,6.11717647 C0.0713235294,6.11717647 -0.00955882353,6.18188235 0.000735294118,6.28923529 C0.00279411765,6.31070588 0.0283823529,6.35394118 0.0301470588,6.37511765 L4.00279412,19.4980588 C4.03426471,19.6054118 4.12602941,19.671 4.23338235,19.671 L5.45955882,19.671 C5.5675,19.671 5.65161765,19.6271765 5.66926471,19.5201176 L7.69073529,10.4945294 L9.71220588,19.5201176 C9.72985294,19.6271765 9.81397059,19.671 9.92161765,19.671 L11.1480882,19.671 C11.2554412,19.671 11.3477941,19.6054118 11.3786765,19.4980588 L15.3510294,6.37541176 C15.3536765,6.35423529 15.3789706,6.311 15.3813235,6.28923529 C15.3910294,6.18217647 15.3104412,6.11717647 15.1598529,6.11717647" id="Fill-1" fill="#101111"></path>
        <path d="M89.4505588,6.11717647 L87.8796765,6.11717647 C87.7720294,6.11717647 87.6808529,6.18217647 87.6487941,6.28923529 L85.0726176,15.8936471 L82.7537941,6.22511765 C82.7364412,6.11717647 82.6726176,6.07423529 82.5437941,6.07423529 L82.5079118,6.07423529 L81.4537941,6.07423529 L81.4179118,6.07423529 C81.2890882,6.07423529 81.2264412,6.11717647 81.2082059,6.22511765 L78.8899706,15.8936471 L76.3129118,6.28923529 C76.2817353,6.18188235 76.1896765,6.11717647 76.0823235,6.11717647 L74.5117353,6.11717647 C74.3608529,6.11717647 74.2811471,6.18188235 74.2905588,6.28923529 C74.2932059,6.31070588 74.3185,6.35394118 74.3205588,6.37511765 L78.2926176,19.4980588 C78.3235,19.6054118 78.4158529,19.671 78.5232059,19.671 L79.7502647,19.671 C79.8576176,19.671 79.9420294,19.6271765 79.9599706,19.5201176 L81.9805588,10.4945294 L84.0023235,19.5201176 C84.0202647,19.6271765 84.1037941,19.671 84.2126176,19.671 L85.4382059,19.671 C85.5464412,19.671 85.6382059,19.6054118 85.6693824,19.4980588 L89.6420294,6.37541176 C89.6443824,6.35423529 89.6693824,6.311 89.6714412,6.28923529 C89.6814412,6.18217647 89.6014412,6.11717647 89.4505588,6.11717647" id="Fill-4" fill="#101111"></path>
        <path d="M21.0914706,10.5057941 C21.0267647,10.2905 20.9405882,9.96844118 20.8332353,9.55961765 L20.7470588,9.55961765 L20.4891176,10.5278529 L19.435,14.5502059 C19.435,14.5931471 19.4132353,14.6146176 19.4132353,14.6360882 C19.4132353,14.7652059 19.4997059,14.8302059 19.65,14.8302059 L21.9088235,14.8302059 C22.0594118,14.8302059 22.1452941,14.7652059 22.1452941,14.6360882 C22.1452941,14.6146176 22.1238235,14.5719706 22.1238235,14.5502059 L21.0914706,10.5057941 Z M25.6088235,19.4769706 C25.6088235,19.6057941 25.5229412,19.6707941 25.3720588,19.6707941 L23.7585294,19.6707941 C23.6514706,19.6707941 23.5655882,19.6275588 23.5435294,19.5199118 L22.7476471,16.6805 C22.7264706,16.5728529 22.6617647,16.5513824 22.5326471,16.5513824 L19.0473529,16.5513824 C18.9182353,16.5513824 18.8541176,16.5728529 18.8326471,16.6805 L18.0364706,19.5199118 C18.015,19.6275588 17.9291176,19.6707941 17.8211765,19.6707941 L16.2079412,19.6707941 C16.0573529,19.6707941 15.9714706,19.6057941 15.9714706,19.4769706 C15.9714706,19.4555 15.9929412,19.4334412 15.9929412,19.3910882 L19.9944118,6.26785294 C20.0155882,6.1605 20.0802941,6.11726471 20.2088235,6.11726471 L21.3708824,6.11726471 C21.4785294,6.11726471 21.5435294,6.1605 21.5864706,6.26785294 L25.5873529,19.3910882 C25.5873529,19.4334412 25.6088235,19.4555 25.6088235,19.4769706 L25.6088235,19.4769706 Z" id="Fill-6" fill="#101111"></path>
        <path d="M48.4665294,19.6708529 L47.0894706,19.6708529 L46.8956471,19.5635 L41.7756471,9.9035 L41.9053529,19.4555588 C41.9053529,19.6058529 41.8400588,19.6708529 41.6894706,19.6708529 L40.1835882,19.6708529 C40.0332941,19.6708529 39.9688824,19.6058529 39.9688824,19.4555588 L39.9688824,6.33291176 C39.9688824,6.18232353 40.0332941,6.11702941 40.1835882,6.11702941 L41.5609412,6.11702941 L41.7541765,6.22526471 L46.8527059,15.8623235 L46.7453529,6.33291176 C46.7453529,6.18232353 46.8097647,6.11702941 46.9606471,6.11702941 L48.4665294,6.11702941 C48.6171176,6.11702941 48.6812353,6.18232353 48.6812353,6.33291176 L48.6812353,19.4555588 C48.6812353,19.6058529 48.6171176,19.6708529 48.4665294,19.6708529" id="Fill-8" fill="#101111"></path>
        <path d="M60.1577059,19.6708529 L52.8427059,19.6708529 C52.6921176,19.6708529 52.6277059,19.6058529 52.6277059,19.4555588 L52.6277059,6.33291176 C52.6277059,6.18232353 52.6921176,6.11702941 52.8427059,6.11702941 L60.1577059,6.11702941 C60.2862353,6.11702941 60.3721176,6.18232353 60.3721176,6.33291176 L60.3721176,7.6235 C60.3721176,7.77379412 60.3082941,7.8385 60.1577059,7.8385 L54.7788824,7.8385 C54.6282941,7.8385 54.5638824,7.90291176 54.5638824,8.05320588 L54.5638824,11.7108529 C54.5638824,11.8614412 54.6282941,11.9255588 54.7788824,11.9255588 L59.1891765,11.9255588 C59.3397647,11.9255588 59.4044706,11.9902647 59.4044706,12.1405588 L59.4044706,13.4311471 C59.4044706,13.5817353 59.3397647,13.6470294 59.1891765,13.6470294 L54.7788824,13.6470294 C54.6282941,13.6470294 54.5638824,13.7120294 54.5638824,13.8620294 L54.5638824,17.7346765 C54.5638824,17.8852647 54.6282941,17.9493824 54.7788824,17.9493824 L60.1577059,17.9493824 C60.2862353,17.9493824 60.3721176,18.0143824 60.3721176,18.1646765 L60.3721176,19.4555588 C60.3721176,19.6058529 60.3082941,19.6708529 60.1577059,19.6708529" id="Fill-10" fill="#101111"></path>
        <path d="M70.1269706,9.77482353 C70.1269706,8.69894118 69.2663824,7.83864706 68.1910882,7.83864706 L65.8249118,7.83864706 C65.6740294,7.83864706 65.6099118,7.90276471 65.6099118,8.05335294 L65.6099118,11.711 C65.6099118,11.8612941 65.6740294,11.9254118 65.8249118,11.9254118 L68.1910882,11.9254118 C69.2663824,11.9254118 70.1269706,11.0657059 70.1269706,9.98982353 L70.1269706,9.77482353 Z M72.1922647,19.4986471 C72.1922647,19.606 72.1060882,19.6707059 71.9772647,19.6707059 L70.3207941,19.6707059 L70.1269706,19.5201176 L68.1266765,13.776 L67.9546176,13.6471765 L65.8249118,13.6471765 C65.6740294,13.6471765 65.6099118,13.7118824 65.6099118,13.8618824 L65.6099118,19.4554118 C65.6099118,19.606 65.5452059,19.6707059 65.3946176,19.6707059 L63.8884412,19.6707059 C63.7378529,19.6707059 63.6737353,19.606 63.6737353,19.4554118 L63.6737353,6.33276471 C63.6737353,6.18217647 63.7378529,6.11717647 63.8884412,6.11717647 L68.1910882,6.11717647 C70.5575588,6.11717647 72.0634412,7.62335294 72.0634412,9.98982353 L72.0634412,10.2045294 C72.0634412,10.9577647 71.6549118,11.8827647 70.8369706,12.6571765 C70.4505,13.0227647 70.0622647,13.0877647 70.0622647,13.3024706 C70.0622647,13.3239412 70.0622647,13.3457059 70.0843235,13.3674706 L72.1707941,19.391 C72.1922647,19.4333529 72.1922647,19.4554118 72.1922647,19.4986471 L72.1922647,19.4986471 Z" id="Fill-12" fill="#101111"></path>
        <path d="M95.5557941,10.5057941 C95.4919706,10.2905 95.4055,9.96844118 95.2969706,9.55961765 L95.2122647,9.55961765 L94.9537353,10.5278529 L93.8999118,14.5502059 C93.8999118,14.5931471 93.8784412,14.6146176 93.8784412,14.6360882 C93.8784412,14.7652059 93.9637353,14.8302059 94.1149118,14.8302059 L96.3728529,14.8302059 C96.5240294,14.8302059 96.6099118,14.7652059 96.6099118,14.6360882 C96.6099118,14.6146176 96.5890294,14.5719706 96.5890294,14.5502059 L95.5557941,10.5057941 Z M100.073735,19.4769706 C100.073735,19.6057941 99.9872647,19.6707941 99.8366765,19.6707941 L98.2237353,19.6707941 C98.1155,19.6707941 98.0302059,19.6275588 98.0078529,19.5199118 L97.2122647,16.6805 C97.1907941,16.5728529 97.1269706,16.5513824 96.9975588,16.5513824 L93.5122647,16.5513824 C93.3828529,16.5513824 93.3184412,16.5728529 93.2975588,16.6805 L92.5007941,19.5199118 C92.4796176,19.6275588 92.3940294,19.6707941 92.2855,19.6707941 L90.6725588,19.6707941 C90.5216765,19.6707941 90.4355,19.6057941 90.4355,19.4769706 C90.4355,19.4555 90.4569706,19.4334412 90.4569706,19.3910882 L94.4587353,6.26785294 C94.4799118,6.1605 94.5443235,6.11726471 94.6740294,6.11726471 L95.8352059,6.11726471 C95.9431471,6.11726471 96.0075588,6.1605 96.0505,6.26785294 L100.051382,19.3910882 C100.051382,19.4334412 100.073735,19.4555 100.073735,19.4769706 L100.073735,19.4769706 Z" id="Fill-14" fill="#101111"></path>
        <path d="M122.931441,19.6708529 L121.554088,19.6708529 L121.360559,19.5635 L116.240559,9.9035 L116.370265,19.4555588 C116.370265,19.6058529 116.305265,19.6708529 116.154676,19.6708529 L114.649971,19.6708529 C114.499088,19.6708529 114.433794,19.6058529 114.433794,19.4555588 L114.433794,6.33291176 C114.433794,6.18232353 114.499088,6.11702941 114.649971,6.11702941 L116.025853,6.11702941 L116.219676,6.22526471 L121.317618,15.8623235 L121.209676,6.33291176 C121.209676,6.18232353 121.275265,6.11702941 121.425853,6.11702941 L122.931441,6.11702941 C123.083206,6.11702941 123.146147,6.18232353 123.146147,6.33291176 L123.146147,19.4555588 C123.146147,19.6058529 123.083206,19.6708529 122.931441,19.6708529" id="Fill-16" fill="#101111"></path>
        <path d="M127.308206,19.6708529 C127.157324,19.6708529 127.093206,19.6058529 127.093206,19.4555588 L127.093206,6.33291176 C127.093206,6.18232353 127.157324,6.11702941 127.308206,6.11702941 L134.622912,6.11702941 C134.751441,6.11702941 134.837912,6.18232353 134.837912,6.33291176 L134.837912,7.6235 C134.837912,7.77379412 134.772618,7.8385 134.622912,7.8385 L129.244088,7.8385 C129.0935,7.8385 129.030559,7.90291176 129.030559,8.05320588 L129.030559,11.7108529 C129.030559,11.8614412 129.0935,11.9255588 129.244088,11.9255588 L133.654971,11.9255588 C133.805853,11.9255588 133.870265,11.9902647 133.870265,12.1405588 L133.870265,13.4311471 C133.870265,13.5817353 133.805853,13.6470294 133.654971,13.6470294 L129.244088,13.6470294 C129.0935,13.6470294 129.030559,13.7120294 129.030559,13.8620294 L129.030559,17.7346765 C129.030559,17.8852647 129.0935,17.9493824 129.244088,17.9493824 L134.622912,17.9493824 C134.751441,17.9493824 134.837912,18.0143824 134.837912,18.1646765 L134.837912,19.4555588 C134.837912,19.6058529 134.772618,19.6708529 134.622912,19.6708529 L127.308206,19.6708529 Z" id="Fill-18" fill="#101111"></path>
        <path d="M144.592735,9.77482353 C144.592735,8.69894118 143.732147,7.83864706 142.657441,7.83864706 L140.2895,7.83864706 C140.139794,7.83864706 140.075382,7.90276471 140.075382,8.05335294 L140.075382,11.711 C140.075382,11.8612941 140.139794,11.9254118 140.2895,11.9254118 L142.657441,11.9254118 C143.732147,11.9254118 144.592735,11.0657059 144.592735,9.98982353 L144.592735,9.77482353 Z M146.658324,19.4986471 C146.658324,19.606 146.572147,19.6707059 146.443618,19.6707059 L144.786559,19.6707059 L144.592735,19.5201176 L142.592147,13.776 L142.420382,13.6471765 L140.2895,13.6471765 C140.139794,13.6471765 140.075382,13.7118824 140.075382,13.8618824 L140.075382,19.4554118 C140.075382,19.606 140.011265,19.6707059 139.860676,19.6707059 L138.354206,19.6707059 C138.203324,19.6707059 138.1395,19.606 138.1395,19.4554118 L138.1395,6.33276471 C138.1395,6.18217647 138.203324,6.11717647 138.354206,6.11717647 L142.657441,6.11717647 C145.023618,6.11717647 146.528912,7.62335294 146.528912,9.98982353 L146.528912,10.2045294 C146.528912,10.9577647 146.120088,11.8827647 145.302735,12.6571765 C144.915382,13.0227647 144.528618,13.0877647 144.528618,13.3024706 C144.528618,13.3239412 144.528618,13.3457059 144.550676,13.3674706 L146.637441,19.391 C146.658324,19.4333529 146.658324,19.4554118 146.658324,19.4986471 L146.658324,19.4986471 Z" id="Fill-20" fill="#101111"></path>
        <path d="M36.0501176,12.1326471 L32.1189412,12.1326471 C31.9683529,12.1326471 31.9039412,12.1967647 31.9039412,12.3473529 L31.9039412,13.6391176 C31.9039412,13.7897059 31.9683529,13.8541176 32.1189412,13.8541176 L34.1139412,13.8541176 C34.2427647,13.8541176 34.3289412,13.9402941 34.3289412,14.0688235 L34.3289412,16.2291176 C34.3289412,17.3041176 33.4686471,18.1652941 32.3924706,18.1652941 L31.7471765,18.1652941 C30.6715882,18.1652941 29.8112941,17.3041176 29.8112941,16.2291176 L29.8112941,9.56 C29.8112941,8.48441176 30.6715882,7.62411765 31.7471765,7.62411765 L32.3924706,7.62411765 C33.4686471,7.62411765 34.3289412,8.48441176 34.3289412,9.56 L34.3298235,9.56 L34.3301176,9.59647059 C34.3301176,9.74676471 34.3945294,9.81176471 34.5451176,9.81176471 L36.0501176,9.81176471 C36.201,9.81176471 36.2654118,9.74676471 36.2654118,9.59647059 L36.2648235,9.56 C36.2648235,7.36588235 34.7374706,5.90264706 32.3924706,5.90264706 L31.7471765,5.90264706 C29.4977647,5.90264706 28.0042353,7.25176471 27.8868824,9.29852941 C27.8801176,9.38088235 27.8751176,9.46617647 27.8751176,9.56 L27.8751176,16.2291176 C27.8751176,18.4235294 29.4024706,19.8855882 31.7471765,19.8855882 L32.3924706,19.8855882 C34.7374706,19.8855882 36.2648235,18.4235294 36.2648235,16.2291176 L36.2648235,12.3473529 C36.2648235,12.1967647 36.2007059,12.1326471 36.0501176,12.1326471" id="Fill-22" fill="#101111"></path>
        <path d="M110.518471,12.1326471 L106.587588,12.1326471 C106.437882,12.1326471 106.373471,12.1967647 106.373471,12.3473529 L106.373471,13.6391176 C106.373471,13.7897059 106.437882,13.8541176 106.587588,13.8541176 L108.583176,13.8541176 C108.711412,13.8541176 108.797882,13.9402941 108.797882,14.0688235 L108.797882,16.2291176 C108.797882,17.3041176 107.937588,18.1652941 106.862588,18.1652941 L106.217,18.1652941 C105.140235,18.1652941 104.280529,17.3041176 104.280529,16.2291176 L104.280529,9.56 C104.280529,8.48441176 105.140235,7.62411765 106.217,7.62411765 L106.862588,7.62411765 C107.937588,7.62411765 108.797882,8.48441176 108.797882,9.56 L108.799647,9.56 L108.799647,9.59647059 C108.799647,9.74676471 108.865235,9.81176471 109.015235,9.81176471 L110.519647,9.81176471 C110.671118,9.81176471 110.735529,9.74676471 110.735529,9.59647059 L110.735529,9.56 C110.735529,7.36588235 109.207,5.90264706 106.862588,5.90264706 L106.217,5.90264706 C103.967588,5.90264706 102.473765,7.25176471 102.355235,9.29852941 C102.349647,9.38088235 102.344353,9.46617647 102.344353,9.56 L102.344353,16.2291176 C102.344353,18.4235294 103.872882,19.8855882 106.217,19.8855882 L106.862588,19.8855882 C109.207,19.8855882 110.735529,18.4235294 110.735529,16.2291176 L110.735529,12.3473529 C110.735529,12.1967647 110.669941,12.1326471 110.518471,12.1326471" id="Fill-24" fill="#101111"></path>
        <path d="M168.377206,0.0606176471 C168.346912,0.0229705882 168.301912,2.94117647e-05 168.253676,2.94117647e-05 L167.073382,2.94117647e-05 C167.0025,2.94117647e-05 166.938971,0.0491470588 166.922206,0.119441176 C166.922206,0.119441176 165.556912,5.61767647 165.303382,6.64120588 C165.049265,5.61767647 163.682206,0.119441176 163.682206,0.119441176 C163.665147,0.0491470588 163.603088,2.94117647e-05 163.530441,2.94117647e-05 L162.350735,2.94117647e-05 C162.277206,2.94117647e-05 162.216029,0.0491470588 162.198971,0.119441176 C162.198971,0.119441176 160.833971,5.61738235 160.578971,6.64120588 C160.324853,5.61738235 158.960147,0.119441176 158.960147,0.119441176 C158.942206,0.0491470588 158.879853,2.94117647e-05 158.8075,2.94117647e-05 L157.627206,2.94117647e-05 C157.554853,2.94117647e-05 157.491912,0.0491470588 157.474853,0.119441176 C157.474853,0.119441176 156.110147,5.61826471 155.855735,6.64208824 C155.601029,5.61826471 154.235735,0.119441176 154.235735,0.119441176 C154.218971,0.0491470588 154.156618,2.94117647e-05 154.083088,2.94117647e-05 L152.904265,2.94117647e-05 C152.831912,2.94117647e-05 152.769853,0.0491470588 152.752794,0.119441176 C152.752794,0.119441176 151.386912,5.61826471 151.131618,6.64208824 C150.877794,5.61826471 149.5125,0.119441176 149.5125,0.119441176 C149.496029,0.0491470588 149.434559,2.94117647e-05 149.361324,2.94117647e-05 L148.181029,2.94117647e-05 C148.133088,2.94117647e-05 148.086618,0.0229705882 148.0575,0.0606176471 C148.028382,0.0982647059 148.0175,0.147970588 148.029559,0.194735294 L150.390441,9.70561765 C150.4075,9.77620588 150.469853,9.82502941 150.541912,9.82502941 L151.721912,9.82502941 C151.795441,9.82502941 151.857794,9.77620588 151.873971,9.70561765 C151.873971,9.70561765 153.239559,4.20767647 153.493676,3.18385294 C153.747794,4.20767647 155.113382,9.70561765 155.113382,9.70561765 C155.130735,9.77620588 155.193971,9.82502941 155.266029,9.82502941 L156.446618,9.82502941 C156.517794,9.82502941 156.579853,9.77620588 156.596912,9.70561765 C156.596912,9.70561765 157.963088,4.20767647 158.216912,3.18414706 C158.471912,4.20767647 159.837794,9.70561765 159.837794,9.70561765 C159.854853,9.77620588 159.916029,9.82502941 159.989559,9.82502941 L161.168382,9.82502941 C161.241618,9.82502941 161.302794,9.77620588 161.320147,9.70561765 C161.320147,9.70561765 162.686029,4.20914706 162.941029,3.18591176 C163.195147,4.20914706 164.559853,9.70561765 164.559853,9.70561765 C164.576912,9.77620588 164.640441,9.82502941 164.711618,9.82502941 L165.891618,9.82502941 C165.963971,9.82502941 166.027206,9.77620588 166.044265,9.70561765 L168.406618,0.194735294 C168.418676,0.147970588 168.407794,0.0991470588 168.377206,0.0606176471" id="Fill-26" fill="#00763B"></path>
    </g>
</svg>