<svg xmlns="http://www.w3.org/2000/svg" width="20" height="20" viewBox="0 0 20 20"><g fill="none"><path fill="#323232" d="M10,3.63640414 C11.0648802,2.94774426 13.2237995,2.7 16.5,2.7 L17.3,2.7 L17.3,16.3 L2.7,16.3 L2.7,2.7 L3.5,2.7 C6.77620053,2.7 8.93511978,2.94774426 10,3.63640414 Z M8.19511239,4.65451296 C7.31518466,4.45145271 6.01302109,4.33356978 4.3,4.30644343 L4.3,14.7 L15.7,14.7 L15.7,4.30644343 C13.9869789,4.33356978 12.6848153,4.45145271 11.8048876,4.65451296 C11.0472289,4.82935727 10.8,5.00051575 10.8,5 L9.2,5 C9.2,5.00051575 8.95277109,4.82935727 8.19511239,4.65451296 Z"/><polygon fill="#323232" points="10.8 17.3 9.2 17.3 9.2 3.7 10.8 3.7"/></g></svg>