<svg xmlns="http://www.w3.org/2000/svg" width="20" height="20" viewBox="0 0 20 20"><path d="M10.000651,4.22280104 C11.8798159,2.53600852 14.7837617,2.59200748 16.5938079,4.40586162 C18.4039341,6.21971576 18.466093,9.10948582 16.7826044,10.9942506 L9.99977101,17.7877238 L3.21708163,10.9942506 C1.53364905,9.10948582 1.59657588,6.21514785 3.4058621,4.40586162 C5.21719629,2.59452743 8.11603818,2.53350457 10.000651,4.22280104 Z M15.4613491,5.53603252 C14.2620914,4.33432696 12.3258876,4.28558386 11.069431,5.41345081 L10.001371,6.37212892 L8.93275093,5.4142028 C7.67267845,4.28475188 5.73997853,4.33443895 4.53720898,5.5372085 C3.34543923,6.72897825 3.28560835,8.63773462 4.38389984,9.89843109 L9.99977101,15.5232061 L15.6158262,9.89843109 C16.7145257,8.63725463 16.6549268,6.73213019 15.4613491,5.53603252 Z"/></svg>