<svg xmlns="http://www.w3.org/2000/svg" width="20" height="20" viewBox="0 0 20 20"><path d="M15.1267494,14.0128608 L18.5,17.3861113 L17.3861113,18.5 L14.0128608,15.1267494 C12.799965,16.097129 11.2617716,16.677624 9.58881198,16.677624 C5.67578777,16.677624 2.5,13.5018362 2.5,9.58881198 C2.5,5.67578777 5.67578777,2.5 9.58881198,2.5 C13.5018362,2.5 16.677624,5.67578777 16.677624,9.58881198 C16.677624,11.2617716 16.097129,12.799965 15.1267494,14.0128608 Z M13.5464957,13.4284276 C14.509629,12.4358364 15.1023324,11.0818733 15.1023324,9.58881198 C15.1023324,6.54259195 12.635032,4.07529155 9.58881198,4.07529155 C6.54259195,4.07529155 4.07529155,6.54259195 4.07529155,9.58881198 C4.07529155,12.635032 6.54259195,15.1023324 9.58881198,15.1023324 C11.0818733,15.1023324 12.4358364,14.509629 13.4284276,13.5464957 L13.5464957,13.4284276 Z"/></svg>