<svg xmlns="http://www.w3.org/2000/svg" style="display:none">
<symbol id="code-400" viewBox="0 0 20 20"><g ><polygon points="7.827 12.03 7.827 13.109 2.497 10.366 2.497 9.664 7.827 6.921 7.827 8 3.927 10.002 3.927 10.028"/><polygon points="8.805 15.93 7.803 15.93 11.729 3.97 12.717 3.97"/><polygon points="18.024 10.366 12.694 13.109 12.694 12.03 16.594 10.028 16.594 10.002 12.694 8 12.694 6.921 18.024 9.664"/></g></symbol>
<symbol id="code-450" viewBox="0 0 20 20"><g><polygon points="7.736 11.9 7.736 13.2 2.276 10.405 2.276 9.625 7.736 6.83 7.736 8.13 4.057 10.002 4.057 10.028"/><polygon points="8.818 15.93 7.647 15.93 11.547 3.97 12.717 3.97"/><polygon points="18.089 10.405 12.629 13.2 12.629 11.9 16.308 10.028 16.308 10.002 12.629 8.13 12.629 6.83 18.089 9.625"/></g></symbol>
<symbol id="heart-700" viewBox="0 0 20 20"><path d="M10.000651,4.22280104 C11.8798159,2.53600852 14.7837617,2.59200748 16.5938079,4.40586162 C18.4039341,6.21971576 18.466093,9.10948582 16.7826044,10.9942506 L9.99977101,17.7877238 L3.21708163,10.9942506 C1.53364905,9.10948582 1.59657588,6.21514785 3.4058621,4.40586162 C5.21719629,2.59452743 8.11603818,2.53350457 10.000651,4.22280104 Z M15.4613491,5.53603252 C14.2620914,4.33432696 12.3258876,4.28558386 11.069431,5.41345081 L10.001371,6.37212892 L8.93275093,5.4142028 C7.67267845,4.28475188 5.73997853,4.33443895 4.53720898,5.5372085 C3.34543923,6.72897825 3.28560835,8.63773462 4.38389984,9.89843109 L9.99977101,15.5232061 L15.6158262,9.89843109 C16.7145257,8.63725463 16.6549268,6.73213019 15.4613491,5.53603252 Z"/></symbol>
<symbol id="search-700" viewBox="0 0 20 20"><path d="M15.1267494,14.0128608 L18.5,17.3861113 L17.3861113,18.5 L14.0128608,15.1267494 C12.799965,16.097129 11.2617716,16.677624 9.58881198,16.677624 C5.67578777,16.677624 2.5,13.5018362 2.5,9.58881198 C2.5,5.67578777 5.67578777,2.5 9.58881198,2.5 C13.5018362,2.5 16.677624,5.67578777 16.677624,9.58881198 C16.677624,11.2617716 16.097129,12.799965 15.1267494,14.0128608 Z M13.5464957,13.4284276 C14.509629,12.4358364 15.1023324,11.0818733 15.1023324,9.58881198 C15.1023324,6.54259195 12.635032,4.07529155 9.58881198,4.07529155 C6.54259195,4.07529155 4.07529155,6.54259195 4.07529155,9.58881198 C4.07529155,12.635032 6.54259195,15.1023324 9.58881198,15.1023324 C11.0818733,15.1023324 12.4358364,14.509629 13.4284276,13.5464957 L13.5464957,13.4284276 Z"/></symbol>
</svg>
