<svg xmlns="http://www.w3.org/2000/svg" width="64" height="19" viewBox="0 0 64 19"><g fill="none"><path fill="#1A1A1A" d="M.82 6.6C.82 6.48.9 6.4 1.02 6.4L2.6 6.4C2.72 6.4 2.84 6.46 2.88 6.58L5.66 13.76C5.68 13.8 5.7 13.82 5.74 13.82 5.78 13.82 5.8 13.8 5.82 13.76L8.6 6.58C8.64 6.46 8.76 6.4 8.88 6.4L10.46 6.4C10.58 6.4 10.66 6.48 10.66 6.6L10.66 18.8C10.66 18.94 10.6 19 10.46 19L9.06 19C8.92 19 8.86 18.94 8.86 18.8L8.88 10.6C8.88 10.42 8.72 10.44 8.68 10.56L6.52 16.14C6.48 16.24 6.36 16.32 6.26 16.32L5.22 16.32C5.12 16.32 5 16.24 4.96 16.14L2.8 10.56C2.76 10.44 2.6 10.42 2.6 10.6L2.62 18.8C2.62 18.94 2.56 19 2.42 19L1.02 19C.88 19 .82 18.94.82 18.8L.82 6.6ZM21.3 19 14.5 19C14.36 19 14.3 18.94 14.3 18.8L14.3 6.6C14.3 6.46 14.36 6.4 14.5 6.4L21.3 6.4C21.44 6.4 21.5 6.46 21.5 6.6L21.5 7.8C21.5 7.94 21.44 8 21.3 8L16.3 8C16.16 8 16.1 8.06 16.1 8.2L16.1 11.6C16.1 11.74 16.16 11.8 16.3 11.8L20.4 11.8C20.54 11.8 20.6 11.86 20.6 12L20.6 13.2C20.6 13.34 20.54 13.4 20.4 13.4L16.3 13.4C16.16 13.4 16.1 13.46 16.1 13.6L16.1 17.2C16.1 17.34 16.16 17.4 16.3 17.4L21.3 17.4C21.44 17.4 21.5 17.46 21.5 17.6L21.5 18.8C21.5 18.94 21.44 19 21.3 19ZM28.74 6.4C30.94 6.4 32.34 7.82 32.34 10 32.34 11.3 31.72 12.4 30.62 12.96 30.54 13 30.48 13.08 30.52 13.2L32.3 18.34C32.38 18.58 32.46 18.76 32.46 18.84 32.46 18.94 32.4 19 32.26 19L30.72 19C30.64 19 30.56 18.94 30.54 18.86L28.68 13.52C28.66 13.46 28.58 13.4 28.5 13.4L26.54 13.4C26.4 13.4 26.34 13.46 26.34 13.6L26.34 18.8C26.34 18.94 26.28 19 26.14 19L24.74 19C24.6 19 24.54 18.94 24.54 18.8L24.54 6.6C24.54 6.46 24.6 6.4 24.74 6.4L28.74 6.4ZM28.74 8 26.54 8C26.4 8 26.34 8.06 26.34 8.2L26.34 11.6C26.34 11.74 26.4 11.8 26.54 11.8L28.74 11.8C29.72 11.8 30.54 10.98 30.54 10L30.54 9.8C30.54 8.82 29.72 8 28.74 8ZM42.46 19 40.8 19C40.72 19 40.66 18.96 40.62 18.88L38.64 14.62C38.6 14.52 38.54 14.4 38.46 14.4 38.38 14.4 38.32 14.52 38.28 14.62L36.2 18.88C36.16 18.94 36.1 19 36.02 19L34.38 19C34.24 19 34.16 18.94 34.16 18.84 34.16 18.76 34.28 18.54 34.38 18.34L37.08 13.06C37.16 12.9 37.2 12.78 37.2 12.68 37.2 12.58 37.16 12.48 37.08 12.32L34.32 6.94C34.22 6.74 34.16 6.64 34.16 6.56 34.16 6.46 34.24 6.4 34.38 6.4L36 6.4C36.08 6.4 36.14 6.46 36.18 6.52L38.28 10.84C38.32 10.94 38.38 11.06 38.46 11.06 38.54 11.06 38.6 10.94 38.64 10.84L40.64 6.52C40.68 6.44 40.74 6.4 40.82 6.4L42.46 6.4C42.6 6.4 42.68 6.46 42.68 6.56 42.68 6.64 42.6 6.76 42.5 6.96L39.82 12.28C39.72 12.48 39.68 12.58 39.68 12.68 39.68 12.78 39.72 12.88 39.8 13.06L42.48 18.4C42.6 18.64 42.68 18.76 42.68 18.84 42.68 18.94 42.6 19 42.46 19Z"/><path fill="#285A14" d="M63.18,0.76 C63.22,0.8 63.22,0.84 63.22,0.88 L61.02,9.72 C61,9.8 60.94,9.84 60.88,9.84 L59.78,9.84 C59.72,9.84 59.66,9.8 59.64,9.72 L58.14,3.66 L56.62,9.72 C56.62,9.8 56.56,9.84 56.48,9.84 L55.4,9.84 C55.32,9.84 55.26,9.8 55.26,9.72 L53.74,3.66 C53.5,4.62 52.24,9.72 52.24,9.72 C52.22,9.8 52.16,9.84 52.1,9.84 L51,9.84 C50.94,9.84 50.88,9.8 50.86,9.72 C50.86,9.72 49.58,4.62 49.36,3.66 L47.84,9.72 C47.84,9.8 47.78,9.84 47.7,9.84 L46.6,9.84 C46.54,9.84 46.48,9.8 46.46,9.72 L44.28,0.88 C44.26,0.84 44.28,0.8 44.3,0.76 C44.32,0.72 44.36,0.7 44.42,0.7 L45.52,0.7 C45.58,0.7 45.64,0.76 45.66,0.82 L47.16,6.88 C47.4,5.92 48.66,0.82 48.66,0.82 C48.68,0.76 48.74,0.7 48.8,0.7 L49.9,0.7 C49.96,0.7 50.02,0.76 50.04,0.82 C50.04,0.82 51.32,5.92 51.54,6.88 L53.06,0.82 C53.06,0.76 53.12,0.7 53.2,0.7 L54.3,0.7 C54.36,0.7 54.42,0.76 54.44,0.82 L55.94,6.88 C56.18,5.92 57.44,0.82 57.44,0.82 C57.46,0.76 57.52,0.7 57.58,0.7 L58.68,0.7 C58.76,0.7 58.8,0.76 58.82,0.82 L60.34,6.88 C60.56,5.92 61.84,0.82 61.84,0.82 C61.86,0.76 61.92,0.7 61.98,0.7 L63.08,0.7 C63.12,0.7 63.16,0.72 63.18,0.76 L63.18,0.76 Z"/></g></svg>