<svg width="64" height="19" viewBox="0 0 64 19" xmlns="http://www.w3.org/2000/svg"><path d="M.82 18.8V6.6c0-.12.08-.2.2-.2H2.6c.12 0 .24.06.28.18l2.78 7.18c.02.04.04.06.08.06s.06-.02.08-.06L8.6 6.58c.04-.12.16-.18.28-.18h1.58c.12 0 .2.08.2.2v12.2c0 .14-.06.2-.2.2h-1.4c-.14 0-.2-.06-.2-.2l.02-8.2c0-.18-.16-.16-.2-.04l-2.16 5.58c-.04.1-.16.18-.26.18H5.22c-.1 0-.22-.08-.26-.18L2.8 10.56c-.04-.12-.2-.14-.2.04l.02 8.2c0 .14-.06.2-.2.2h-1.4c-.14 0-.2-.06-.2-.2zm20.68 0c0 .14-.06.2-.2.2h-6.8c-.14 0-.2-.06-.2-.2V6.6c0-.14.06-.2.2-.2h6.8c.14 0 .2.06.2.2v1.2c0 .14-.06.2-.2.2h-5c-.14 0-.2.06-.2.2v3.4c0 .14.06.2.2.2h4.1c.14 0 .2.06.2.2v1.2c0 .14-.06.2-.2.2h-4.1c-.14 0-.2.06-.2.2v3.6c0 .14.06.2.2.2h5c.14 0 .2.06.2.2v1.2zm3.04 0V6.6c0-.14.06-.2.2-.2h4c2.2 0 3.6 1.42 3.6 3.6 0 1.3-.62 2.4-1.72 2.96-.08.04-.14.12-.1.24l1.78 5.14c.08.24.16.42.16.5 0 .1-.06.16-.2.16h-1.54c-.08 0-.16-.06-.18-.14l-1.86-5.34c-.02-.06-.1-.12-.18-.12h-1.96c-.14 0-.2.06-.2.2v5.2c0 .14-.06.2-.2.2h-1.4c-.14 0-.2-.06-.2-.2zm1.8-7.2c0 .14.06.2.2.2h2.2c.98 0 1.8-.82 1.8-1.8v-.2c0-.98-.82-1.8-1.8-1.8h-2.2c-.14 0-.2.06-.2.2v3.4zm16.34 7.24c0 .1-.08.16-.22.16H40.8c-.08 0-.14-.04-.18-.12l-1.98-4.26c-.04-.1-.1-.22-.18-.22-.08 0-.14.12-.18.22l-2.08 4.26c-.04.06-.1.12-.18.12h-1.64c-.14 0-.22-.06-.22-.16 0-.08.12-.3.22-.5l2.7-5.28c.08-.16.12-.28.12-.38 0-.1-.04-.2-.12-.36l-2.76-5.38c-.1-.2-.16-.3-.16-.38 0-.1.08-.16.22-.16H36c.08 0 .14.06.18.12l2.1 4.32c.04.1.1.22.18.22.08 0 .14-.12.18-.22l2-4.32c.04-.08.1-.12.18-.12h1.64c.14 0 .22.06.22.16 0 .08-.08.2-.18.4l-2.68 5.32c-.1.2-.14.3-.14.4 0 .1.04.2.12.38l2.68 5.34c.12.24.2.36.2.44zM63.18.76c.04.04.04.08.04.12l-2.2 8.84c-.02.08-.08.12-.14.12h-1.1c-.06 0-.12-.04-.14-.12l-1.5-6.06-1.52 6.06c0 .08-.06.12-.14.12H55.4c-.08 0-.14-.04-.14-.12l-1.52-6.06c-.24.96-1.5 6.06-1.5 6.06-.02.08-.08.12-.14.12H51c-.06 0-.12-.04-.14-.12 0 0-1.28-5.1-1.5-6.06l-1.52 6.06c0 .08-.06.12-.14.12h-1.1c-.06 0-.12-.04-.14-.12L44.28.88c-.02-.04 0-.08.02-.12.02-.04.06-.06.12-.06h1.1c.06 0 .12.06.14.12l1.5 6.06c.24-.96 1.5-6.06 1.5-6.06.02-.06.08-.12.14-.12h1.1c.06 0 .12.06.14.12 0 0 1.28 5.1 1.5 6.06L53.06.82c0-.06.06-.12.14-.12h1.1c.06 0 .12.06.14.12l1.5 6.06c.24-.96 1.5-6.06 1.5-6.06.02-.06.08-.12.14-.12h1.1c.08 0 .12.06.14.12l1.52 6.06c.22-.96 1.5-6.06 1.5-6.06.02-.06.08-.12.14-.12h1.1c.04 0 .08.02.1.06z" fill="#FFF"/></svg>