<svg width="169" height="20" viewBox="0 0 169 20" xmlns="http://www.w3.org/2000/svg"><g fill="none" fill-rule="evenodd"><path d="M15.16 6.117h-1.57c-.108 0-.2.065-.231.172l-2.577 9.605-2.318-9.669c-.018-.108-.082-.15-.21-.15H7.127c-.129 0-.192.042-.21.15L4.6 15.894 2.023 6.289a.234.234 0 0 0-.231-.172H.222c-.15 0-.232.065-.221.172.002.022.027.065.03.086l3.972 13.123a.235.235 0 0 0 .23.173H5.46c.107 0 .192-.044.21-.15l2.02-9.026 2.022 9.025c.018.107.102.151.21.151h1.226c.107 0 .2-.066.23-.173l3.973-13.123c.003-.02.028-.064.03-.086.01-.107-.07-.172-.221-.172m74.29 0h-1.57a.236.236 0 0 0-.231.172l-2.576 9.605-2.32-9.669c-.017-.108-.08-.15-.21-.15h-1.125c-.129 0-.192.042-.21.15l-2.318 9.669-2.577-9.605a.234.234 0 0 0-.23-.172h-1.571c-.151 0-.23.065-.221.172.002.022.028.065.03.086l3.972 13.123c.03.107.123.173.23.173h1.227c.108 0 .192-.044.21-.15l2.02-9.026 2.022 9.025c.018.107.102.151.21.151h1.226c.108 0 .2-.066.231-.173l3.973-13.123c.002-.02.027-.064.03-.086.01-.107-.07-.172-.221-.172m-68.36 4.389a38.82 38.82 0 0 1-.258-.946h-.086l-.258.968-1.054 4.022c0 .043-.022.065-.022.086 0 .13.087.194.237.194h2.259c.15 0 .236-.065.236-.194 0-.021-.021-.064-.021-.086l-1.033-4.044zm4.518 8.971c0 .129-.086.194-.237.194H23.76c-.108 0-.193-.043-.215-.151l-.796-2.84c-.022-.107-.086-.129-.215-.129h-3.486c-.129 0-.193.022-.214.13l-.797 2.839c-.021.108-.107.15-.215.15h-1.613c-.15 0-.237-.064-.237-.193 0-.021.022-.044.022-.086l4.001-13.123c.022-.107.086-.15.215-.15h1.162c.108 0 .173.042.215.15l4.001 13.123c0 .042.022.065.022.086zm22.858.193h-1.378l-.193-.107-5.12-9.66.13 9.553c0 .15-.066.215-.217.215h-1.505c-.15 0-.215-.065-.215-.215V6.333c0-.15.064-.216.215-.216h1.377l.193.108 5.099 9.637-.108-9.53c0-.15.065-.215.216-.215h1.506c.15 0 .214.065.214.216v13.123c0 .15-.064.215-.214.215m11.691-.001h-7.315c-.15 0-.215-.064-.215-.214V6.333c0-.15.064-.216.215-.216h7.315c.128 0 .214.065.214.216v1.29c0 .15-.064.215-.214.215h-5.38c-.15 0-.214.065-.214.215v3.658c0 .15.064.215.215.215h4.41c.15 0 .215.064.215.215v1.29c0 .15-.064.216-.215.216h-4.41c-.15 0-.215.065-.215.215v3.873c0 .15.064.214.215.214h5.379c.128 0 .214.065.214.216v1.29c0 .15-.064.216-.214.216m9.969-9.896c0-1.076-.86-1.936-1.936-1.936h-2.366c-.151 0-.215.064-.215.214v3.658c0 .15.064.214.215.214h2.366c1.075 0 1.936-.86 1.936-1.935v-.215zm2.065 9.724c0 .107-.086.172-.215.172h-1.656l-.194-.15-2-5.745-.172-.129h-2.13c-.151 0-.215.065-.215.215v5.593c0 .151-.065.216-.215.216h-1.507c-.15 0-.214-.065-.214-.216V6.333c0-.15.064-.216.214-.216h4.303c2.367 0 3.872 1.506 3.872 3.873v.215c0 .753-.408 1.678-1.226 2.452-.386.366-.775.43-.775.645 0 .022 0 .044.022.065l2.087 6.024a.193.193 0 0 1 .021.108zm23.364-8.993a39.46 39.46 0 0 1-.259-.946h-.085l-.258.968L93.9 14.55c0 .043-.022.065-.022.086 0 .13.086.194.237.194h2.258c.151 0 .237-.065.237-.194 0-.021-.021-.064-.021-.086l-1.033-4.044zm4.518 8.971c0 .129-.087.194-.237.194h-1.613c-.109 0-.194-.043-.216-.151l-.796-2.84c-.021-.107-.085-.129-.214-.129h-3.486c-.13 0-.194.022-.214.13L92.5 19.52c-.021.108-.107.15-.216.15h-1.612c-.151 0-.237-.064-.237-.193 0-.021.021-.044.021-.086l4.002-13.123c.02-.107.085-.15.215-.15h1.161c.108 0 .173.042.216.15l4 13.123c0 .042.023.065.023.086zm22.857.193h-1.377l-.193-.107-5.12-9.66.13 9.553c0 .15-.066.215-.216.215h-1.505c-.15 0-.216-.065-.216-.215V6.333c0-.15.065-.216.216-.216h1.376l.194.108 5.098 9.637-.108-9.53c0-.15.065-.215.216-.215h1.505c.152 0 .215.065.215.216v13.123c0 .15-.063.215-.215.215m4.377-.001c-.15 0-.215-.064-.215-.214V6.333c0-.15.064-.216.215-.216h7.315c.128 0 .215.065.215.216v1.29c0 .15-.065.215-.215.215h-5.379c-.15 0-.213.065-.213.215v3.658c0 .15.063.215.213.215h4.411c.15 0 .215.064.215.215v1.29c0 .15-.064.216-.215.216h-4.41c-.151 0-.214.065-.214.215v3.873c0 .15.063.214.213.214h5.379c.128 0 .215.065.215.216v1.29c0 .15-.065.216-.215.216h-7.315zm17.285-9.895c0-1.076-.86-1.936-1.936-1.936h-2.368c-.15 0-.214.064-.214.214v3.658c0 .15.065.214.215.214h2.367c1.075 0 1.936-.86 1.936-1.935v-.215zm2.065 9.724c0 .107-.086.172-.214.172h-1.657l-.194-.15-2-5.745-.173-.129h-2.13c-.15 0-.215.065-.215.215v5.593c0 .151-.064.216-.214.216h-1.507c-.15 0-.215-.065-.215-.216V6.333c0-.15.064-.216.215-.216h4.303c2.367 0 3.872 1.506 3.872 3.873v.215c0 .753-.409 1.678-1.226 2.452-.388.366-.774.43-.774.645 0 .022 0 .044.022.065l2.086 6.024a.196.196 0 0 1 .021.108zM36.05 12.133h-3.93c-.15 0-.215.064-.215.214v1.292c0 .15.064.215.215.215h1.995c.129 0 .215.086.215.215v2.16c0 1.075-.86 1.936-1.937 1.936h-.645a1.928 1.928 0 0 1-1.936-1.936V9.56c0-1.076.86-1.936 1.936-1.936h.645c1.077 0 1.937.86 1.937 1.936l.001.036c0 .15.065.216.215.216h1.505c.151 0 .215-.065.215-.216V9.56c0-2.194-1.528-3.657-3.873-3.657h-.645c-2.25 0-3.743 1.349-3.86 3.396a3.138 3.138 0 0 0-.012.261v6.67c0 2.194 1.527 3.656 3.872 3.656h.645c2.345 0 3.873-1.462 3.873-3.657v-3.882c0-.15-.064-.214-.215-.214m74.467 0h-3.93c-.15 0-.215.064-.215.214v1.292c0 .15.065.215.215.215h1.995c.128 0 .215.086.215.215v2.16c0 1.075-.86 1.936-1.935 1.936h-.646a1.928 1.928 0 0 1-1.936-1.936V9.56c0-1.076.86-1.936 1.936-1.936h.646c1.075 0 1.935.86 1.935 1.936h.002v.036c0 .15.065.216.215.216h1.505c.151 0 .216-.065.216-.216V9.56c0-2.194-1.529-3.657-3.873-3.657h-.646c-2.25 0-3.743 1.349-3.862 3.396-.005.082-.01.167-.01.261v6.67c0 2.194 1.528 3.656 3.872 3.656h.646c2.344 0 3.873-1.462 3.873-3.657v-3.882c0-.15-.066-.214-.218-.214" fill="#101111"/><path d="M168.377.06a.16.16 0 0 0-.123-.06h-1.18a.157.157 0 0 0-.152.12l-1.619 6.521-1.62-6.522A.156.156 0 0 0 163.53 0h-1.18a.155.155 0 0 0-.151.12l-1.62 6.521L158.96.12a.158.158 0 0 0-.153-.119h-1.18a.156.156 0 0 0-.152.12l-1.62 6.522-1.62-6.523a.156.156 0 0 0-.152-.119h-1.179a.155.155 0 0 0-.151.12l-1.621 6.522-1.62-6.523a.154.154 0 0 0-.15-.119h-1.181a.156.156 0 0 0-.151.195l2.36 9.51c.018.071.08.12.152.12h1.18a.154.154 0 0 0 .152-.12l1.62-6.521 1.62 6.522c.017.07.08.119.152.119h1.18a.155.155 0 0 0 .15-.12s1.367-5.497 1.62-6.52c.256 1.023 1.622 6.52 1.622 6.52.017.071.078.12.152.12h1.178a.155.155 0 0 0 .152-.12l1.621-6.52 1.619 6.52c.017.071.08.12.152.12h1.18a.156.156 0 0 0 .152-.12l2.363-9.51a.153.153 0 0 0-.03-.134" fill="#00763B"/></g></svg>